<svg width="44" height="44" viewBox="0 0 44 44" fill="none" xmlns="http://www.w3.org/2000/svg">
<rect width="44" height="44" rx="22" fill="url(#paint0_linear_92_109)"/>
<path d="M31.557 12.4582C31.4167 12.3175 31.25 12.206 31.0665 12.1298C30.8829 12.0537 30.6862 12.0145 30.4875 12.0145C30.2889 12.0145 30.0921 12.0537 29.9086 12.1298C29.7251 12.206 29.5584 12.3175 29.4181 12.4582L22 19.8611L14.5819 12.443C14.4415 12.3025 14.2748 12.1911 14.0913 12.1151C13.9078 12.0391 13.7111 12 13.5125 12C13.3138 12 13.1172 12.0391 12.9337 12.1151C12.7502 12.1911 12.5834 12.3025 12.443 12.443C12.3025 12.5834 12.1911 12.7502 12.1151 12.9337C12.0391 13.1172 12 13.3138 12 13.5125C12 13.7111 12.0391 13.9078 12.1151 14.0913C12.1911 14.2748 12.3025 14.4415 12.443 14.5819L19.8611 22L12.443 29.4181C12.3025 29.5585 12.1911 29.7252 12.1151 29.9087C12.0391 30.0922 12 30.2889 12 30.4875C12 30.6862 12.0391 30.8828 12.1151 31.0663C12.1911 31.2498 12.3025 31.4166 12.443 31.557C12.5834 31.6975 12.7502 31.8089 12.9337 31.8849C13.1172 31.9609 13.3138 32 13.5125 32C13.7111 32 13.9078 31.9609 14.0913 31.8849C14.2748 31.8089 14.4415 31.6975 14.5819 31.557L22 24.1389L29.4181 31.557C29.5585 31.6975 29.7252 31.8089 29.9087 31.8849C30.0922 31.9609 30.2889 32 30.4875 32C30.6862 32 30.8828 31.9609 31.0663 31.8849C31.2498 31.8089 31.4166 31.6975 31.557 31.557C31.6975 31.4166 31.8089 31.2498 31.8849 31.0663C31.9609 30.8828 32 30.6862 32 30.4875C32 30.2889 31.9609 30.0922 31.8849 29.9087C31.8089 29.7252 31.6975 29.5585 31.557 29.4181L24.1389 22L31.557 14.5819C32.1335 14.0055 32.1335 13.0346 31.557 12.4582Z" fill="#B9F0F9"/>
<defs>
<linearGradient id="paint0_linear_92_109" x1="4.91738e-07" y1="44" x2="46.2941" y2="41.437" gradientUnits="userSpaceOnUse">
<stop stop-color="#82A6F7"/>
<stop offset="1" stop-color="#F03395"/>
</linearGradient>
</defs>
</svg>
